<svg width="32" height="32" viewBox="0 0 32 32" fill="none" xmlns="http://www.w3.org/2000/svg">
<path d="M29.7734 10.468L28.8187 9.93733C30.2867 7.84533 31.1627 4.70133 30.0641 0C30.0641 0 27.5881 6.70533 22.6107 6.484L16.7841 3.24267C16.5654 3.11953 16.3202 3.05093 16.0694 3.04267H15.9347C15.6831 3.05112 15.4371 3.1197 15.2174 3.24267L9.38941 6.484C4.41207 6.70667 1.93607 0 1.93607 0C0.836073 4.70133 1.71474 7.84533 3.18141 9.93733L2.22674 10.468C1.99017 10.5975 1.79257 10.7879 1.65447 11.0196C1.51637 11.2512 1.4428 11.5156 1.44141 11.7853L1.47074 31.24C1.47074 31.5107 1.61607 31.7627 1.86274 31.8947C1.98093 31.9635 2.11528 31.9998 2.25207 31.9998C2.38887 31.9998 2.52321 31.9635 2.64141 31.8947L10.3614 27.6227C10.8494 27.3413 11.1467 26.8467 11.1467 26.3067V17.2173C11.1467 16.676 11.4441 16.1733 11.9307 15.9053L15.2174 14.076C15.4573 13.9404 15.7285 13.8696 16.0041 13.8707C16.2707 13.8707 16.5467 13.9373 16.7841 14.076L20.0707 15.9053C20.5574 16.1733 20.8547 16.676 20.8547 17.2173V26.3067C20.8547 26.8467 21.1561 27.3453 21.6414 27.6227L29.3587 31.8947C29.4782 31.9635 29.6136 31.9997 29.7514 31.9997C29.8892 31.9997 30.0246 31.9635 30.1441 31.8947C30.2614 31.8301 30.3593 31.7354 30.4278 31.6203C30.4962 31.5052 30.5327 31.3739 30.5334 31.24L30.5587 11.7853C30.5579 11.5155 30.4846 11.2509 30.3464 11.0192C30.2083 10.7874 30.0103 10.597 29.7734 10.468Z" fill="#8CC84B"/>
</svg>
